<svg width="10" height="18" viewBox="0 0 10 18" fill="none" xmlns="http://www.w3.org/2000/svg">
<path d="M8.7476 6.03005L3.13425 0.526943C2.78982 0.189435 2.32274 -0.00011247 1.83575 5.00673e-08C1.34876 0.00011257 0.881769 0.189875 0.537499 0.527543C0.19323 0.865211 -0.000114723 1.32312 5.10703e-08 1.80055C0.000114825 2.27797 0.19368 2.73579 0.538112 3.0733L6.15146 8.57521C6.20845 8.63094 6.25367 8.69715 6.28453 8.77004C6.31538 8.84294 6.33126 8.92108 6.33126 9C6.33126 9.07892 6.31538 9.15706 6.28453 9.22996C6.25367 9.30285 6.20845 9.36906 6.15146 9.42479L0.538112 14.9267C0.19368 15.2642 0.000114825 15.722 5.10703e-08 16.1995C-0.000114723 16.6769 0.19323 17.1348 0.537499 17.4725C0.881769 17.8101 1.34876 17.9999 1.83575 18C2.32274 18.0001 2.78982 17.8106 3.13425 17.4731L8.7476 11.9699C9.54962 11.1815 10 10.1135 10 9C10 7.88652 9.54962 6.81848 8.7476 6.03005Z" fill="#0067F5"/>
</svg>
